HIERARCHY
ROOT Hips
{
	OFFSET	0.00	0.00	0.00
	CHANNELS 6 Xposition Yposition Zposition Zrotation Xrotation Yrotation
	JOINT LeftUpLeg
	{
		OFFSET	 0.126116	-0.014019	-0.065224
		CHANNELS 3 Zrotation Xrotation Yrotation
		JOINT LeftLeg
		{
			OFFSET	 0.000000	 0.000000	 0.569914
			CHANNELS 3 Zrotation Xrotation Yrotation
			JOINT LeftFoot
			{
				OFFSET	 0.000000	 0.000000	 0.544423
				CHANNELS 3 Zrotation Xrotation Yrotation
				JOINT LeftToeBase
				{
					OFFSET	 0.000000	 0.000000	 0.207117
					CHANNELS 3 Zrotation Xrotation Yrotation
					End Site
					{
						OFFSET	 0.000000	 0.000000	 0.207117
					}
				}
			}
		}
	}
	JOINT RightUpLeg
	{
		OFFSET	-0.124023	-0.008373	-0.065224
		CHANNELS 3 Zrotation Xrotation Yrotation
		JOINT RightLeg
		{
			OFFSET	 0.000000	 0.000000	 0.570047
			CHANNELS 3 Zrotation Xrotation Yrotation
			JOINT RightFoot
			{
				OFFSET	 0.000000	 0.000000	 0.544354
				CHANNELS 3 Zrotation Xrotation Yrotation
				JOINT RightToeBase
				{
					OFFSET	 0.000000	 0.000000	 0.207540
					CHANNELS 3 Zrotation Xrotation Yrotation
					End Site
					{
						OFFSET	 0.000000	 0.000000	 0.207540
					}
				}
			}
		}
	}
	JOINT Spine
	{
		OFFSET	 0.000184	-0.007763	 0.117403
		CHANNELS 3 Zrotation Xrotation Yrotation
		JOINT Spine1
		{
			OFFSET	 0.000000	 0.000000	 0.137269
			CHANNELS 3 Zrotation Xrotation Yrotation
			JOINT Spine2
			{
				OFFSET	 0.000000	 0.000000	 0.156879
				CHANNELS 3 Zrotation Xrotation Yrotation
				JOINT LeftShoulder
				{
					OFFSET	 0.080501	-0.002496	 0.160144
					CHANNELS 3 Zrotation Xrotation Yrotation
					JOINT LeftArm
					{
						OFFSET	 0.000000	 0.000000	 0.164363
						CHANNELS 3 Zrotation Xrotation Yrotation
						JOINT LeftForeArm
						{
							OFFSET	 0.000000	 0.000000	 0.364576
							CHANNELS 3 Zrotation Xrotation Yrotation
							JOINT LeftHand
							{
								OFFSET	 0.000000	 0.000000	 0.360812
								CHANNELS 3 Zrotation Xrotation Yrotation
								JOINT LeftHandIndex1
								{
									OFFSET	 0.000000	 0.000000	 0.086006
									CHANNELS 3 Zrotation Xrotation Yrotation
									JOINT LeftHandIndex2
									{
										OFFSET	 0.000000	 0.000000	 0.047237
										CHANNELS 3 Zrotation Xrotation Yrotation
										JOINT LeftHandIndex3
										{
											OFFSET	-0.004284	-0.000551	 0.038165
											CHANNELS 3 Zrotation Xrotation Yrotation
											End Site
											{
												OFFSET	-0.004284	-0.000551	 0.038165
											}
										}
									}
								}
							}
						}
					}
				}
				JOINT Neck
				{
					OFFSET	 0.000000	 0.000000	 0.176489
					CHANNELS 3 Zrotation Xrotation Yrotation
					JOINT Head
					{
						OFFSET	 0.000000	-0.001747	 0.077940
						CHANNELS 3 Zrotation Xrotation Yrotation
						End Site
						{
							OFFSET	 0.000000	-0.001747	 0.077940
						}
					}
				}
				JOINT RightShoulder
				{
					OFFSET	-0.080363	 0.000306	 0.159706
					CHANNELS 3 Zrotation Xrotation Yrotation
					JOINT RightArm
					{
						OFFSET	 0.000000	 0.000000	 0.164196
						CHANNELS 3 Zrotation Xrotation Yrotation
						JOINT RightForeArm
						{
							OFFSET	 0.000000	 0.000000	 0.365611
							CHANNELS 3 Zrotation Xrotation Yrotation
							JOINT RightHand
							{
								OFFSET	 0.000000	 0.000000	 0.360648
								CHANNELS 3 Zrotation Xrotation Yrotation
								JOINT RightHandIndex1
								{
									OFFSET	 0.000000	 0.000000	 0.069977
									CHANNELS 3 Zrotation Xrotation Yrotation
									JOINT RightHandIndex2
									{
										OFFSET	 0.000000	 0.000000	 0.052305
										CHANNELS 3 Zrotation Xrotation Yrotation
										JOINT RightHandIndex3
										{
											OFFSET	 0.009002	-0.000782	 0.042196
											CHANNELS 3 Zrotation Xrotation Yrotation
											End Site
											{
												OFFSET	 0.009002	-0.000782	 0.042196
											}
										}
									}
								}
							}
						}
					}
				}
			}
		}
	}
}
MOTION
Frames:    8
Frame Time: 0.03333334
-0.408179	 0.202915	 1.227944	-175.211400	 9.414104	 14.021730	 4.865722	-5.355649	-178.637400	-7.754069	-36.250420	-4.939636	 107.363700	 58.787930	-124.149200	-2.385833	 28.452760	 0.000004	 14.705490	-49.018120	 163.497800	 5.367062	-47.158370	 2.820817	-6.362435	 70.442960	 24.503990	 2.384659	 28.388700	-0.000001	 41.653410	-20.505700	 6.676336	 44.727160	 19.522120	 15.844840	-8.598384	-1.855243	-17.627750	-91.776170	 78.527360	 180.000000	-2.562861	 47.311820	 1.962609	-2.863661	-2.945165	-106.598300	 4.240697	-26.644110	-0.756221	-4.130319	 21.525730	 0.991547	-5.167930	 0.731704	 3.519349	-1.378229	 35.397820	-2.634230	-18.277240	 7.237159	 7.640197	-23.657960	-21.716930	-15.650630	 89.782070	 78.203870	-180.000000	 68.121300	-1.276450	-10.660660	-14.829740	-9.821227	 47.848370	-38.006820	 5.717124	-83.408580	 5.716227	 19.173190	-3.685159	 5.027444	 0.246877	-9.377972	-2.350882	 35.473990	 5.254307
-0.410807	 0.208386	 1.229043	-174.728400	 9.312132	 13.530670	 5.472328	-4.204546	-178.300400	-7.675416	-34.978540	-4.743858	 107.241900	 58.771140	-123.796400	-2.385833	 28.452760	 0.000004	 14.944440	-48.179150	 164.035400	 5.658813	-47.170630	 3.035824	-7.248201	 70.968030	 24.982610	 2.384659	 28.388700	-0.000001	 40.263360	-19.641150	 6.603166	 43.557060	 18.627260	 16.645380	-8.197644	-1.548896	-17.332370	-91.776240	 78.527380	-180.000000	-4.140069	 46.004890	 5.284020	-2.916479	-2.993215	-107.273300	 4.572233	-27.030520	-0.644246	-4.130319	 21.525730	 0.991547	-5.167930	 0.731704	 3.519349	-1.378229	 35.397820	-2.634230	-17.855110	 7.688627	 7.578419	-23.548270	-22.345640	-15.740130	 89.782140	 78.203900	 180.000000	 67.898030	-6.052483	-12.321830	-13.659890	-9.537162	 51.127060	-40.960460	 8.976335	-80.040890	 5.716227	 19.173190	-3.685159	 5.027444	 0.246877	-9.377972	-2.350882	 35.473990	 5.254307
-0.412739	 0.212637	 1.230036	-174.368000	 9.214451	 12.839060	 5.775867	-3.044391	-177.696800	-7.701580	-33.499820	-4.582713	 106.518600	 58.560600	-122.787700	-2.385833	 28.452760	 0.000004	 15.714570	-47.639360	 165.008400	 5.736007	-47.457740	 3.106867	-7.386931	 71.641940	 24.910430	 2.384659	 28.388700	-0.000001	 39.322230	-18.800670	 6.897545	 42.625490	 17.979600	 17.181380	-7.906859	-1.327074	-17.060290	-91.776210	 78.527380	-180.000000	-5.397781	 45.005880	 7.824175	-2.957326	-3.020507	-107.832900	 4.805734	-27.465780	-0.547528	-4.130319	 21.525730	 0.991547	-5.167930	 0.731704	 3.519349	-1.378229	 35.397820	-2.634230	-17.632240	 7.774943	 7.884010	-23.397810	-22.336180	-16.277670	 89.782100	 78.203870	 180.000000	 67.055530	-9.617566	-13.765710	-12.842230	-9.286039	 53.577380	-42.643710	 10.979490	-77.827030	 5.716227	 19.173190	-3.685159	 5.027444	 0.246877	-9.377972	-2.350882	 35.473990	 5.254307
-0.414373	 0.216173	 1.231003	-174.024600	 9.049463	 12.037160	 5.912405	-1.787570	-176.962900	-7.771183	-31.798110	-4.413147	 105.354500	 58.260280	-121.284500	-2.385833	 28.452760	 0.000004	 16.761380	-47.209930	 166.218800	 5.718755	-47.898310	 3.115828	-6.959909	 72.371810	 24.372920	 2.384659	 28.388700	-0.000001	 38.541680	-17.908000	 7.329696	 41.771070	 17.399080	 17.667510	-7.652190	-1.125857	-16.807800	-91.776200	 78.527380	-180.000000	-6.530468	 44.210980	 9.974853	-2.990992	-3.040220	-108.297900	 5.001608	-27.940370	-0.453392	-4.130319	 21.525730	 0.991547	-5.167930	 0.731704	 3.519349	-1.378229	 35.397820	-2.634230	-17.492580	 7.699057	 8.371952	-23.222180	-22.040060	-17.044380	 89.782130	 78.203900	 180.000000	 65.679490	-12.360900	-14.567180	-12.368470	-8.894569	 54.401810	-43.906510	 11.794720	-76.011780	 5.716227	 19.173190	-3.685159	 5.027444	 0.246877	-9.377972	-2.350882	 35.473990	 5.254307
-0.415849	 0.219423	 1.231857	-173.562500	 8.740430	 11.520550	 6.190802	-0.553327	-176.628000	-7.851847	-30.347300	-4.273610	 105.237400	 57.956530	-120.755100	-2.385833	 28.452760	 0.000004	 17.487640	-46.658490	 166.996400	 5.726530	-48.134640	 3.133193	-6.649973	 72.954910	 23.864730	 2.384659	 28.388700	-0.000001	 37.517090	-17.106590	 7.369601	 40.968690	 16.681550	 18.300500	-7.350809	-0.855970	-16.635480	-91.776240	 78.527330	-180.000000	-7.747730	 43.740580	 12.133150	-2.996275	-2.972864	-108.775100	 5.173656	-28.567870	-0.388705	-4.130319	 21.525730	 0.991547	-5.167930	 0.731704	 3.519349	-1.378229	 35.397820	-2.634230	-17.254030	 7.675029	 8.426921	-22.977500	-22.111620	-16.872490	 89.782150	 78.203870	 180.000000	 64.195850	-14.465950	-15.128540	-12.170830	-8.699154	 54.672410	-45.114170	 11.873780	-74.292190	 5.716227	 19.173190	-3.685159	 5.027444	 0.246877	-9.377972	-2.350882	 35.473990	 5.254307
-0.417104	 0.222263	 1.232603	-173.042600	 8.345019	 11.181670	 6.533042	 0.626060	-176.538700	-7.938727	-29.113530	-4.158954	 105.700800	 57.677390	-120.780300	-2.385833	 28.452760	 0.000004	 18.007590	-46.055110	 167.493900	 5.747353	-48.252240	 3.154505	-6.384020	 73.432230	 23.373820	 2.384659	 28.388700	-0.000001	 36.405830	-16.348870	 7.179348	 40.246110	 15.913270	 18.982630	-7.036453	-0.562759	-16.502600	-91.776180	 78.527330	-180.000000	-8.963550	 43.481200	 14.162510	-2.984447	-2.861376	-109.241400	 5.330476	-29.256380	-0.343811	-4.130319	 21.525730	 0.991547	-5.167930	 0.731704	 3.519349	-1.378229	 35.397820	-2.634230	-16.970090	 7.677391	 8.247375	-22.699980	-22.369520	-16.197780	 89.782140	 78.203900	 180.000000	 62.653780	-16.049600	-15.784170	-12.054450	-8.667391	 55.096060	-46.239470	 11.632590	-72.978040	 5.716227	 19.173190	-3.685159	 5.027444	 0.246877	-9.377972	-2.350882	 35.473990	 5.254307
-0.418101	 0.224640	 1.233276	-172.555300	 7.997325	 10.952340	 6.891520	 1.609063	-176.569900	-8.039822	-28.094390	-4.074392	 106.033500	 57.402900	-120.757100	-2.385833	 28.452760	 0.000004	 18.541730	-45.549180	 167.898000	 5.683766	-48.286850	 3.108631	-5.576705	 73.784650	 22.319120	 2.384659	 28.388700	-0.000001	 35.355930	-15.741050	 6.942541	 39.650840	 15.167520	 19.618950	-6.719697	-0.192231	-16.418600	-91.776120	 78.527380	 180.000000	-10.146250	 43.365330	 15.921940	-2.955608	-2.717547	-109.640700	 5.478327	-29.967220	-0.319047	-4.130319	 21.525730	 0.991547	-5.167930	 0.731704	 3.519349	-1.378229	 35.397820	-2.634230	-16.705040	 7.676516	 8.202679	-22.475040	-22.493940	-15.890310	 89.782130	 78.203890	 180.000000	 61.343350	-17.185990	-16.358320	-11.993360	-8.698300	 55.467730	-47.236130	 11.376300	-72.037210	 5.716227	 19.173190	-3.685159	 5.027444	 0.246877	-9.377972	-2.350882	 35.473990	 5.254307
-0.418869	 0.226665	 1.233889	-172.068300	 7.690758	 10.793380	 7.275285	 2.412679	-176.694000	-8.164885	-27.293770	-4.026092	 106.404200	 57.118020	-120.824300	-2.385833	 28.452760	 0.000004	 19.090200	-45.095540	 168.238700	 5.563628	-48.232190	 3.016182	-4.422018	 74.046140	 20.894610	 2.384659	 28.388700	-0.000001	 34.319130	-15.218540	 6.655274	 39.140510	 14.448870	 20.220240	-6.394591	 0.214772	-16.344040	-91.776210	 78.527400	-180.000000	-11.350910	 43.363630	 17.482460	-2.912079	-2.548869	-109.971100	 5.631622	-30.723690	-0.307191	-4.130319	 21.525730	 0.991547	-5.167930	 0.731704	 3.519349	-1.378229	 35.397820	-2.634230	-16.438610	 7.674721	 8.236089	-22.272390	-22.547690	-15.787580	 89.782070	 78.203830	-180.000000	 60.068370	-18.043760	-16.851760	-11.983240	-8.753504	 55.681030	-48.227260	 10.986080	-71.348300	 5.716227	 19.173190	-3.685159	 5.027444	 0.246877	-9.377972	-2.350882	 35.473990	 5.254307
